<svg width="22" height="22" fill="none" xmlns="http://www.w3.org/2000/svg"><path fill-rule="evenodd" clip-rule="evenodd" d="M19 0H3a3 3 0 00-3 3v16a3 3 0 003 3h16a3 3 0 003-3V3a3 3 0 00-3-3zM7 20H3a1 1 0 01-1-1v-1.18A3 3 0 003 18h4v2zm0-4H3a1 1 0 01-1-1v-1.18A3 3 0 003 14h4v2zm0-4H3a1 1 0 01-1-1V3a1 1 0 011-1h4v10zm6 8H9v-6h4v6zm0-8H9V2h4v10zm7 7a1 1 0 01-1 1h-4v-2h4a3 3 0 001-.18V19zm0-4a1 1 0 01-1 1h-4v-2h4a3 3 0 001-.18V15zm0-4a1 1 0 01-1 1h-4V2h4a1 1 0 011 1v8zm-3-5a1 1 0 100 2 1 1 0 000-2zM5 8a1 1 0 100-2 1 1 0 000 2z" fill="#D3D3FD"/></svg>