<svg width="19" height="19" fill="none" xmlns="http://www.w3.org/2000/svg"><path fill-rule="evenodd" clip-rule="evenodd" d="M16.645 10.48c-.21 0-.429-.067-.639-.114a8.987 8.987 0 01-1.249-.373 1.905 1.905 0 00-2.364.956l-.21.43a11.617 11.617 0 01-2.536-1.912A11.643 11.643 0 017.74 6.923l.4-.268a1.915 1.915 0 00.954-2.37 9.899 9.899 0 01-.372-1.254 7.112 7.112 0 01-.114-.65 2.863 2.863 0 00-2.86-2.38h-2.86A2.857 2.857 0 00.712.973 2.87 2.87 0 00.026 3.26C1.072 11.5 7.557 17.982 15.777 19h.363A2.856 2.856 0 0019 16.122v-2.869a2.866 2.866 0 00-2.355-2.773zM17 16.052c0 .27-.117.527-.321.705a.995.995 0 01-.775.235c-7.279-.929-13-6.65-13.898-13.9-.03-.28.055-.558.236-.772A.947.947 0 012.951 2h2.834c.453-.01.85.302.945.743.038.257.085.511.142.762.109.496.254.983.434 1.458l-1.322.611a.942.942 0 00-.463 1.251 13.66 13.66 0 006.613 6.584.95.95 0 00.718 0 .943.943 0 00.539-.49l.586-1.316c.488.174.987.318 1.492.433.252.056.508.103.766.14.443.095.756.49.746.941L17 16.052z" fill="#D3D3FD"/></svg>